# xmcd
#
# Track frame offsets:
#	150
#	15984
#	28791
#	42660
#	56096
#	69041
#	85419
#	98049
#	116595
#	128798
#	146906
#	162509
#	173919
#	187539
#	199741
#	221381
#	242794
#	256214
#	272455
#	289110
#	305623
#	317549
#
# Disc length: 4464 seconds
#
# Revision: 0
# Processed by: cddbd v1.5.2PL0 Copyright (c) Steve Scherf et al.
# Submitted via: EasyCDDAExtractor 11.5.3.1
#
DISCID=35116e16
DTITLE=Allen Toussaint - Life, Love, and Faith - Southern Nights - Motion
DYEAR=2015
DGENRE=Soul
TTITLE0=Victims of the Darkness
TTITLE1=Am I Expecting Too Much?
TTITLE2=My Baby is the Real Thing
TTITLE3=Goin' Down
TTITLE4=She Once Belonged to Me
TTITLE5=Out of the City (Into Country Life)
TTITLE6=Soul Sister
TTITLE7=Fingers and Toes
TTITLE8=I've Got to Convince Myself
TTITLE9=On Your Way Down
TTITLE10=Gone Too Far
TTITLE11=Electricity
TTITLE12=Last Train
TTITLE13=Worldwide
TTITLE14=Back in Baby's Arms
TTITLE15=Country John
TTITLE16=Basic Lady
TTITLE17=Southern Nights
TTITLE18=You Will Not Lose
TTITLE19=What Do You Want the Girl to Do?
TTITLE20=When the Party's Over
TTITLE21=Cruel Way to Go Down
EXTD=
EXTT0=
EXTT1=
EXTT2=
EXTT3=
EXTT4=
EXTT5=
EXTT6=
EXTT7=
EXTT8=
EXTT9=
EXTT10=
EXTT11=
EXTT12=
EXTT13=
EXTT14=
EXTT15=
EXTT16=
EXTT17=
EXTT18=
EXTT19=
EXTT20=
EXTT21=
PLAYORDER=
